<?xml version="1.0" encoding="utf-8"?>
<!-- Generator: Adobe Illustrator 24.0.1, SVG Export Plug-In . SVG Version: 6.00 Build 0)  -->
<!DOCTYPE svg PUBLIC "-//W3C//DTD SVG 1.1//EN" "http://www.w3.org/Graphics/SVG/1.1/DTD/svg11.dtd" [
	<!ENTITY ns_extend "http://ns.adobe.com/Extensibility/1.0/">
	<!ENTITY ns_ai "http://ns.adobe.com/AdobeIllustrator/10.0/">
	<!ENTITY ns_graphs "http://ns.adobe.com/Graphs/1.0/">
	<!ENTITY ns_vars "http://ns.adobe.com/Variables/1.0/">
	<!ENTITY ns_imrep "http://ns.adobe.com/ImageReplacement/1.0/">
	<!ENTITY ns_sfw "http://ns.adobe.com/SaveForWeb/1.0/">
	<!ENTITY ns_custom "http://ns.adobe.com/GenericCustomNamespace/1.0/">
	<!ENTITY ns_adobe_xpath "http://ns.adobe.com/XPath/1.0/">
]>
<svg version="1.1" id="Livello_1" xmlns:x="&ns_extend;" xmlns:i="&ns_ai;" xmlns:graph="&ns_graphs;"
	 xmlns="http://www.w3.org/2000/svg" xmlns:xlink="http://www.w3.org/1999/xlink" x="0px" y="0px" viewBox="0 0 300 42"
	 style="enable-background:new 0 0 300 42;" xml:space="preserve">
<style type="text/css">
	.st0{fill:#FFFFFF;}
</style>
<metadata>
	<sfw  xmlns="&ns_sfw;">
		<slices></slices>
		<sliceSourceBounds  bottomLeftOrigin="true" height="32.3" width="296.8" x="1.2" y="-161.6"></sliceSourceBounds>
	</sfw>
</metadata>
<g>
	<path class="st0" d="M249.8,29.4c-2.1,0-4-0.8-5.5-2.3c-1.5-1.6-2.3-3.4-2.3-5.6c0-2.2,0.8-4.1,2.2-5.6c1.5-1.6,3.3-2.4,5.5-2.4
		c2.2,0,4,0.8,5.5,2.4c1.5,1.6,2.2,3.5,2.2,5.6v0h-7.6v7.9H249.8z M260.9,10.4c-3.1-3.1-6.8-4.6-11.1-4.6c-4.3,0-8,1.5-11.1,4.6
		c-3.1,3.1-4.6,6.8-4.6,11.1c0,4.3,1.5,8,4.6,11.1c3.1,3,6.8,4.6,11.1,4.6h15.7V21.5C265.5,17.2,264,13.5,260.9,10.4"/>
	<path class="st0" d="M282.3,29.4v-7.9h-7.6v0c0-2.2,0.8-4.1,2.2-5.6c1.5-1.6,3.3-2.4,5.5-2.4c2.2,0,4,0.8,5.5,2.4
		c1.5,1.6,2.2,3.5,2.2,5.6c0,2.1-0.8,4-2.3,5.6C286.3,28.6,284.5,29.4,282.3,29.4L282.3,29.4z M266.6,21.5v15.6h15.7
		c4.3,0,8-1.5,11.1-4.6c3.1-3.1,4.6-6.8,4.6-11.1c0-4.3-1.5-8-4.6-11.1c-3.1-3.1-6.8-4.6-11.1-4.6c-4.3,0-8,1.5-11.1,4.6
		C268.2,13.5,266.6,17.2,266.6,21.5"/>
	<path class="st0" d="M94.2,23.9h10V9.8h-0.5L94.2,23.9z M102.9,5.8h4.3v31.4h-2.7V26.8H92.2l-7.3,10.3h-3.5L102.9,5.8z"/>
	<g>
		<path class="st0" d="M121.2,22.1h19.3c-0.3,4.5-1.9,8.2-4.9,11.1c-3,2.9-6.7,4.4-11,4.4c-4.5,0-8.2-1.6-11.2-4.7
			c-3-3.1-4.5-7-4.5-11.7c0-2.2,0.4-4.2,1.2-6.2c0.8-1.9,2-3.7,3.6-5.3c1.5-1.5,3.2-2.6,5.1-3.4c1.9-0.7,3.9-1.1,6.2-1.1
			c3,0,5.7,0.7,8.1,2.2c2.4,1.4,4.3,3.5,5.8,6.2h-3.8c-1.5-1.9-3-3.2-4.7-4.1c-1.7-0.9-3.5-1.3-5.6-1.3c-3.6,0-6.6,1.3-9.1,3.8
			c-2.5,2.6-3.7,5.6-3.7,9.2c0,3.8,1.2,7,3.7,9.5c2.5,2.5,5.5,3.8,9.1,3.8c2.8,0,5.4-0.9,7.6-2.7c2.3-1.8,3.7-4.2,4.4-7.1h-15.7
			V22.1z"/>
	</g>
	<polygon class="st0" points="145.4,19.8 158.6,19.8 158.6,22.9 145.4,22.9 145.4,34.1 158.6,34.1 158.6,37.1 142.3,37.1 142.3,5.8 
		158.6,5.8 158.6,8.9 145.4,8.9 	"/>
	<polygon class="st0" points="182.1,33.4 181.7,5.8 184.8,5.8 184.8,37.1 181,37.1 163.9,9.5 164.2,37.1 161.2,37.1 161.2,5.8 
		164.9,5.8 	"/>
	<path class="st0" d="M212.6,14c-1.4-1.9-2.9-3.3-4.7-4.3c-1.7-0.9-3.7-1.4-5.9-1.4c-3.5,0-6.4,1.3-8.9,3.8
		c-2.5,2.6-3.7,5.6-3.7,9.1c0,3.8,1.2,6.9,3.7,9.5c2.4,2.6,5.4,3.9,8.9,3.9c2.1,0,4.1-0.5,5.8-1.3c1.7-0.9,3.2-2.2,4.5-4h3.6
		c-1.4,2.6-3.3,4.7-5.7,6.1c-2.4,1.4-5.1,2.2-8,2.2c-4.6,0-8.4-1.6-11.4-4.7c-3-3.1-4.6-7-4.6-11.7c0-2.2,0.4-4.2,1.2-6.2
		c0.8-1.9,2-3.7,3.6-5.3c1.5-1.5,3.1-2.6,5-3.4c1.9-0.8,3.8-1.1,6-1.1c3.1,0,5.9,0.8,8.3,2.3c2.5,1.5,4.4,3.6,5.9,6.4H212.6z"/>
	<polygon class="st0" points="226.5,25.6 226.5,37.1 223.5,37.1 223.5,25.6 213.5,5.8 217,5.8 225,22.1 233.1,5.8 236.6,5.8 	"/>
	<path class="st0" d="M12.8,22.7c0.8-2.1,1.9-5.2,3.2-8.5c1.2,3.3,2.4,6.5,3.2,8.5H12.8z M18.8,5.7H16l0-0.1l0,0.1h-2.6L1.2,37.1
		h6.1c0,0,2.8-7.4,3.4-8.9h10.6c0.6,1.5,3.4,8.9,3.4,8.9h6.2L18.8,5.7z"/>
	<path class="st0" d="M76.5,28.9c-1.7,1.7-4,2.6-7.3,2.6h-4.3v-20h3.6c2,0,3.6,0.2,4.6,0.5c0.9,0.3,1.8,0.7,2.5,1.4
		c1.1,0.9,1.9,2.1,2.5,3.4c0.6,1.4,0.9,2.9,0.9,4.6C79,24.6,78.2,27.1,76.5,28.9 M83.5,14.4L83.5,14.4c-1-2.2-2.4-4-4.2-5.5
		C78,7.8,76.5,7,74.8,6.5c-1.7-0.5-3.7-0.7-6-0.7H56.3c0,0-5.5,14.1-7.7,19.8c-1.5-5.9-4.9-19.8-4.9-19.8h-5c0,0-3.4,14-4.9,19.8
		C31.5,19.8,26,5.7,26,5.7H20l12,31.4h4.5c0,0,3-12.3,4.6-18.7c1.6,6.4,4.6,18.7,4.6,18.7h4.5l8.9-23.4v23.4h8.3
		c3.1,0,5.3-0.2,6.8-0.6c1.6-0.4,3-1.1,4.4-2c2-1.4,3.6-3.3,4.7-5.6c1.1-2.3,1.6-4.8,1.6-7.5C85,18.9,84.5,16.6,83.5,14.4"/>
</g>
</svg>
